# xmcd
#
# Track frame offsets: 
#        150
#        15642
#        35659
#        51028
#        71493
#        80861
#        99122
#        119493
#        130649
#        142908
#        160706
#        176075
#
# Disc length: 2535 seconds
#
# Revision: 1
# Processed by: cddbd v1.5.1PL2 Copyright (c) Steve Scherf et al.
# Submitted via: ExactAudioCopy v0.90b3
#
DISCID=9909e50c
DTITLE=Smokin' Joe Kubek and Bnois King - Show Me The Money
DYEAR=2004
DGENRE=Blues
TTITLE0=I Saw It Coming
TTITLE1=Burnin' To The Ground
TTITLE2=Mirror, Mirror
TTITLE3=She Can Smell Another Woman
TTITLE4=My Heart's In Texas
TTITLE5=Invitation Only
TTITLE6=Armadillo Blues
TTITLE7=Can't Keep Her Hands Off
TTITLE8=Stop Messin' With My Mind
TTITLE9=Crazy World
TTITLE10=Let's Stop Pretending
TTITLE11=Tired Of Cryin' Over You
EXTD=
EXTT0=
EXTT1=
EXTT2=
EXTT3=
EXTT4=
EXTT5=
EXTT6=
EXTT7=
EXTT8=
EXTT9=
EXTT10=
EXTT11=
PLAYORDER=
